<svg width="105" height="20" viewBox="0 0 105 20" fill="none" xmlns="http://www.w3.org/2000/svg">
<path d="M0.339976 18.7721L0.339309 1.22442L5.14024 0.499664L7.92032 0.49984L7.92012 3.5649L3.48286 3.56461L3.48254 8.50736L7.91995 6.27098L7.91973 9.69501L3.48232 11.959L3.48232 19.396L0.339976 18.7721Z" fill="white"/>
<path d="M9.49132 3.12319C9.49143 1.43879 10.4286 0.499999 12.0271 0.500101L15.5273 0.500323C17.1258 0.500424 18.0904 1.43933 18.0902 3.12373L18.0902 3.59315L14.9206 5.24974L14.9207 3.53773L12.6332 3.53758L12.6329 8.36988L18.0901 5.55369L18.0894 17.0407C18.0893 18.7251 17.1246 19.6639 15.5261 19.6638L12.0259 19.6636C10.4273 19.6635 9.49033 18.7246 9.49044 17.0402L9.49055 15.2453L12.6326 13.6164L12.6324 16.6262L14.9199 16.6263L14.9203 10.6067L9.49067 13.4505L9.49132 3.12319Z" fill="white"/>
<path d="M28.9095 0.501172L28.9085 16.5996L31.196 16.5998L31.197 0.501317L34.3665 0.501519L34.3654 16.9866C34.3653 18.809 33.4833 19.665 31.6092 19.6648L29.1563 19.6647C28.0263 19.6646 27.3649 19.0019 27.365 17.8145C27.3649 19.0019 26.6759 19.6645 25.5459 19.6645L22.9 19.6643C21.3015 19.6642 20.3645 18.7253 20.3646 17.0409L20.3657 0.50063L23.5076 0.500829L23.5066 16.5993L25.8217 16.5994L25.8227 0.500976L28.9095 0.501172Z" fill="white"/>
<path d="M47.6796 7.3228L47.6798 3.45697L45.1442 3.45681L45.1439 8.56523L47.6796 7.3228ZM50.7111 9.47682L50.7106 17.0152C50.7105 18.8101 49.801 19.666 47.8993 19.6659L42.1115 19.6655L42.1128 0.50201L48.1485 0.502393C49.7471 0.502495 50.7116 1.4414 50.7115 3.1258L50.7113 7.15732C50.7112 8.39991 50.3253 9.14544 49.3607 9.47673L50.7111 9.47682ZM47.679 16.6837L47.6794 10.5259L45.1437 11.796L45.1434 16.6835L47.679 16.6837Z" fill="white"/>
<path d="M61.584 19.6667L58.4421 19.6666L58.4426 11.5483L56.1274 12.7355L56.127 19.6664L52.9851 19.6662L52.9861 3.12595C52.9862 1.44155 53.9234 0.50276 55.5219 0.502861L59.0221 0.503083C60.6206 0.503185 61.5852 1.44209 61.5851 3.12649L61.584 19.6667ZM58.4428 8.17949L58.4431 3.54049L56.128 3.54034L56.1277 9.31148L58.4428 8.17949Z" fill="white"/>
<path d="M69.3702 8.23541L69.3705 3.54118L67.0554 3.54103L67.055 9.39502L69.3702 8.23541ZM72.512 10.0029L70.1968 11.1901L73.7792 19.6675L70.4995 19.6673L67.5234 12.5706L67.0548 12.819L67.0544 19.6671L63.9125 19.6669L63.9137 0.503394L69.9495 0.503777C71.548 0.503878 72.5125 1.44279 72.5124 3.12719L72.512 10.0029Z" fill="white"/>
<path d="M80.3271 7.32488L80.3274 3.45904L77.7918 3.45888L77.7915 8.56731L80.3271 7.32488ZM83.3587 9.47889L83.3582 17.0173C83.3581 18.8121 82.4485 19.6681 80.5468 19.668L74.7591 19.6676L74.7603 0.504082L80.7961 0.504465C82.3946 0.504567 83.3592 1.44347 83.3591 3.12787L83.3588 7.15939C83.3587 8.40198 82.9728 9.14751 82.0082 9.47881L83.3587 9.47889ZM80.3265 16.6857L80.3269 10.528L77.7913 11.798L77.7909 16.6856L80.3265 16.6857Z" fill="white"/>
<path d="M93.2118 19.6688L85.6326 19.6683L85.6339 0.504772L93.213 0.505253L93.2128 3.57031L88.7756 3.57003L88.7753 8.51278L93.2127 6.27639L93.2124 9.70042L88.775 11.9644L88.7747 16.6034L93.212 16.6037L93.2118 19.6688Z" fill="white"/>
<path d="M100.591 8.23739L100.592 3.54316L98.2765 3.54302L98.2761 9.397L100.591 8.23739ZM103.733 10.0048L101.418 11.1921L105 19.6695L101.721 19.6693L98.7444 12.5725L98.2759 12.821L98.2754 19.6691L95.1335 19.6689L95.1347 0.505375L101.171 0.505758C102.769 0.50586 103.734 1.44477 103.733 3.12917L103.733 10.0048Z" fill="white"/>
<path d="M0.339976 18.7721L0.339309 1.22442L5.14024 0.499664L7.92032 0.49984L7.92012 3.5649L3.48286 3.56461L3.48254 8.50736L7.91995 6.27098L7.91973 9.69501L3.48232 11.959L3.48232 19.396L0.339976 18.7721Z" fill="#8162FF"/>
<path d="M9.49132 3.12319C9.49143 1.43879 10.4286 0.499999 12.0271 0.500101L15.5273 0.500323C17.1258 0.500424 18.0904 1.43933 18.0902 3.12373L18.0902 3.59315L14.9206 5.24974L14.9207 3.53773L12.6332 3.53758L12.6329 8.36988L18.0901 5.55369L18.0894 17.0407C18.0893 18.7251 17.1246 19.6639 15.5261 19.6638L12.0259 19.6636C10.4273 19.6635 9.49033 18.7246 9.49044 17.0402L9.49055 15.2453L12.6326 13.6164L12.6324 16.6262L14.9199 16.6263L14.9203 10.6067L9.49067 13.4505L9.49132 3.12319Z" fill="#8162FF"/>
<path d="M28.9095 0.501172L28.9085 16.5996L31.196 16.5998L31.197 0.501317L34.3665 0.501519L34.3654 16.9866C34.3653 18.809 33.4833 19.665 31.6092 19.6648L29.1563 19.6647C28.0263 19.6646 27.3649 19.0019 27.365 17.8145C27.3649 19.0019 26.6759 19.6645 25.5459 19.6645L22.9 19.6643C21.3015 19.6642 20.3645 18.7253 20.3646 17.0409L20.3657 0.50063L23.5076 0.500829L23.5066 16.5993L25.8217 16.5994L25.8227 0.500976L28.9095 0.501172Z" fill="#8162FF"/>
</svg>
